<svg xmlns="http://www.w3.org/2000/svg" width="64" height="64" viewBox="0 0 64 64" fill="none">
  <g clip-path="url(#clip0_476_1949)">
    <path d="M48 30C50.329 29.9983 52.6263 30.5397 54.7094 31.5812C56.7925 32.6228 58.604 34.1358 60 36" stroke="#007EA8" stroke-width="4" stroke-linejoin="round"/>
    <path d="M4 36C5.39599 34.1358 7.2075 32.6228 9.29061 31.5812C11.3737 30.5397 13.671 29.9983 16 30" stroke="#007EA8" stroke-width="4" stroke-linejoin="round"/>
    <path d="M32 46C37.5228 46 42 41.5228 42 36C42 30.4772 37.5228 26 32 26C26.4772 26 22 30.4772 22 36C22 41.5228 26.4772 46 32 46Z" stroke="#007EA8" stroke-width="4" stroke-linejoin="round"/>
    <path d="M18 54C19.4357 51.5636 21.4824 49.5441 23.9377 48.141C26.3931 46.738 29.1721 46 32 46C34.8279 46 37.6069 46.738 40.0623 48.141C42.5176 49.5441 44.5643 51.5636 46 54" stroke="#007EA8" stroke-width="4" stroke-linejoin="round"/>
    <path d="M40.25 20C40.624 18.5514 41.3968 17.2367 42.4804 16.2053C43.5641 15.1738 44.9153 14.4669 46.3806 14.1648C47.8459 13.8627 49.3665 13.9775 50.7698 14.4963C52.1731 15.015 53.4028 15.9169 54.3193 17.0994C55.2358 18.282 55.8023 19.6978 55.9545 21.1861C56.1067 22.6745 55.8385 24.1757 55.1803 25.5192C54.5222 26.8628 53.5005 27.9949 52.2312 28.7869C50.962 29.579 49.4961 29.9992 48 30" stroke="#007EA8" stroke-width="4" stroke-linejoin="round"/>
    <path d="M15.9999 30C14.5038 29.9992 13.0379 29.579 11.7686 28.7869C10.4994 27.9949 9.47769 26.8628 8.81955 25.5192C8.16141 24.1757 7.89321 22.6745 8.04542 21.1861C8.19762 19.6978 8.76412 18.282 9.68059 17.0994C10.5971 15.9169 11.8268 15.015 13.23 14.4963C14.6333 13.9775 16.154 13.8627 17.6192 14.1648C19.0845 14.4669 20.4357 15.1738 21.5194 16.2053C22.6031 17.2367 23.3759 18.5514 23.7499 20" stroke="#007EA8" stroke-width="4" stroke-linejoin="round"/>
  </g>
  <defs>
    <clipPath id="clip0_476_1949">
      <rect width="64" height="64" fill="white"/>
    </clipPath>
  </defs>
</svg>