<svg xmlns="http://www.w3.org/2000/svg" width="64" height="64" viewBox="0 0 64 64" fill="none">
  <g clip-path="url(#clip0_476_1939)">
    <path d="M32 56C45.2548 56 56 45.2548 56 32C56 18.7452 45.2548 8 32 8C18.7452 8 8 18.7452 8 32C8 45.2548 18.7452 56 32 56Z" stroke="#007EA8" stroke-width="4"/>
    <path d="M18.97 30.815L22.3 25C22.4758 24.6955 22.7287 24.4428 23.0333 24.2672C23.3379 24.0916 23.6834 23.9995 24.035 24H28.2125C28.5502 24.0005 28.8825 23.9145 29.1775 23.75L32.25 22.06C32.3852 21.9873 32.5104 21.8973 32.6225 21.7925L39.3525 15.71C39.6873 15.4054 39.909 14.9963 39.9812 14.5495C40.0534 14.1026 39.9719 13.6445 39.75 13.25L37.125 8.54749" stroke="#007EA8" stroke-width="4"/>
    <path d="M16.9449 13.3075L13.9999 20.27C13.801 20.7413 13.7902 21.271 13.9699 21.75L16.8449 29.4175C16.963 29.7308 17.1579 30.0094 17.4117 30.2278C17.6655 30.4462 17.97 30.5974 18.2974 30.6675L23.6549 31.82C23.9521 31.8837 24.2308 32.0143 24.4699 32.2019C24.709 32.3895 24.9022 32.6291 25.0349 32.9025L25.9849 34.87C26.1488 35.208 26.4045 35.493 26.7229 35.6924C27.0412 35.8918 27.4093 35.9976 27.7849 35.9975H31.2349" stroke="#007EA8" stroke-width="4"/>
    <path d="M53.2726 43.12L40.1776 35.065C39.9394 34.9198 39.6739 34.8253 39.3976 34.7875L33.6926 34.0175C33.2641 33.9595 32.8284 34.0419 32.4507 34.2524C32.073 34.4628 31.7737 34.7901 31.5976 35.185L28.1726 42.87C28.0134 43.2276 27.9627 43.6241 28.0267 44.0102C28.0907 44.3964 28.2666 44.7553 28.5326 45.0425L33.4676 50.125C33.6815 50.355 33.8383 50.6321 33.9251 50.934C34.012 51.2359 34.0265 51.5539 33.9676 51.8625L33.1751 55.9725" stroke="#007EA8" stroke-width="4"/>
  </g>
  <defs>
    <clipPath id="clip0_476_1939">
      <rect width="64" height="64" fill="white"/>
    </clipPath>
  </defs>
</svg>