<svg width="32" height="32" viewBox="0 0 32 32" fill="none" xmlns="http://www.w3.org/2000/svg">
<g clip-path="url(#clip0_476_1999)">
<path d="M16 28C22.6274 28 28 22.6274 28 16C28 9.37258 22.6274 4 16 4C9.37258 4 4 9.37258 4 16C4 22.6274 9.37258 28 16 28Z" stroke="#009ED4" stroke-width="2" stroke-linecap="round" stroke-linejoin="round"/>
<path d="M16 21C18.7614 21 21 18.7614 21 16C21 13.2386 18.7614 11 16 11C13.2386 11 11 13.2386 11 16C11 18.7614 13.2386 21 16 21Z" stroke="#009ED4" stroke-width="2" stroke-linecap="round" stroke-linejoin="round"/>
<path d="M12.4649 12.465L7.51489 7.51501" stroke="#009ED4" stroke-width="2" stroke-linecap="round" stroke-linejoin="round"/>
<path d="M19.5349 12.465L24.4849 7.51501" stroke="#009ED4" stroke-width="2" stroke-linecap="round" stroke-linejoin="round"/>
<path d="M19.5349 19.535L24.4849 24.485" stroke="#009ED4" stroke-width="2" stroke-linecap="round" stroke-linejoin="round"/>
<path d="M12.4649 19.535L7.51489 24.485" stroke="#009ED4" stroke-width="2" stroke-linecap="round" stroke-linejoin="round"/>
</g>
<defs>
<clipPath id="clip0_476_1999">
<rect width="32" height="32" fill="white"/>
</clipPath>
</defs>
</svg>
