<svg width="623" height="393" viewBox="0 0 623 393" fill="none" xmlns="http://www.w3.org/2000/svg">
<path d="M200.775 197.757H150.07C136.301 197.757 125.13 209.02 125.13 222.904V274.029C125.13 287.913 136.301 299.176 150.07 299.176H200.775C214.544 299.176 225.715 287.913 225.715 274.014V222.919C225.715 209.036 214.544 197.772 200.759 197.772L200.775 197.757ZM4.6296 197.757H-46.0598C-59.829 197.757 -71 209.02 -71 222.919V274.045C-71 287.928 -59.829 299.192 -46.0598 299.192H4.6296C18.4144 299.192 29.5854 287.928 29.5854 274.029V222.919C29.5854 209.036 18.4144 197.757 4.6296 197.757ZM396.889 197.757H346.2C332.431 197.757 321.26 209.02 321.26 222.904V274.029C321.26 287.913 332.431 299.176 346.2 299.176H396.889C410.674 299.176 421.845 287.913 421.845 274.014V222.919C421.845 209.036 410.674 197.757 396.889 197.757ZM396.889 400.58H346.2C332.431 400.58 321.26 411.844 321.26 425.743V476.853C321.26 490.736 332.431 502 346.2 502H396.889C410.674 502 421.845 490.736 421.845 476.853V425.743C421.845 411.844 410.674 400.58 396.889 400.58ZM598.06 197.757H547.37C533.586 197.757 522.415 209.02 522.415 222.904V274.029C522.415 287.913 533.586 299.176 547.37 299.176H598.06C611.829 299.176 623 287.913 623 274.014V222.919C623 209.036 611.829 197.757 598.06 197.757ZM100.19 96.3369H49.5002C35.7154 96.3369 24.5444 107.601 24.5444 121.5V172.61C24.5444 186.493 35.7154 197.757 49.5002 197.757H100.19C113.959 197.757 125.13 186.493 125.13 172.61V121.5C125.13 107.601 113.959 96.3369 100.19 96.3369ZM100.19 299.161H49.5002C35.7154 299.161 24.5444 310.424 24.5444 324.323V375.433C24.5444 389.332 35.7154 400.58 49.5002 400.58H100.19C113.959 400.58 125.13 389.332 125.13 375.433V324.323C125.13 310.424 113.959 299.161 100.19 299.161ZM296.319 96.3369H245.614C231.83 96.3369 220.659 107.601 220.659 121.5V172.61C220.659 186.493 231.83 197.757 245.614 197.757H296.304C310.073 197.757 321.244 186.493 321.244 172.61V121.5C321.244 107.601 310.089 96.3369 296.319 96.3369ZM497.474 96.3369H446.785C433 96.3369 421.845 107.601 421.845 121.5V172.61C421.845 186.493 433.016 197.757 446.785 197.757H497.474C511.259 197.757 522.415 186.493 522.415 172.61V121.5C522.415 107.601 511.259 96.3369 497.474 96.3369ZM296.319 299.161H245.614C231.83 299.161 220.659 310.424 220.659 324.323V375.433C220.659 389.332 231.83 400.58 245.614 400.58H296.304C310.073 400.58 321.244 389.332 321.244 375.433V324.323C321.244 310.424 310.073 299.176 296.304 299.176L296.319 299.161ZM497.474 299.161H446.785C433 299.161 421.845 310.424 421.845 324.323V375.433C421.845 389.332 433.016 400.58 446.785 400.58H497.474C511.259 400.58 522.415 389.332 522.415 375.433V324.323C522.415 310.424 511.259 299.161 497.474 299.161ZM200.775 0H150.07C136.301 0 125.13 11.2636 125.13 25.1471V76.2569C125.13 90.1561 136.301 101.42 150.07 101.42H200.775C214.544 101.42 225.715 90.1561 225.715 76.2569V25.1471C225.7 11.2636 214.56 0 200.775 0ZM396.889 0H346.2C332.431 0 321.26 11.2636 321.26 25.1471V76.2569C321.26 90.1561 332.431 101.42 346.2 101.42H396.889C410.674 101.42 421.845 90.1561 421.845 76.2569V25.1471C421.845 11.2636 410.674 0 396.889 0Z" fill="white" fill-opacity="0.1"/>
</svg>
