<svg width="623" height="254" viewBox="0 0 623 254" fill="none" xmlns="http://www.w3.org/2000/svg">
<path d="M200.775 58.7566H150.07C136.301 58.7566 125.13 70.0202 125.13 83.9037V135.029C125.13 148.913 136.301 160.176 150.07 160.176H200.775C214.544 160.176 225.715 148.913 225.715 135.014V83.9194C225.715 70.0359 214.544 58.7723 200.759 58.7723L200.775 58.7566ZM4.6296 58.7566H-46.0598C-59.829 58.7566 -71 70.0202 -71 83.9194V135.045C-71 148.928 -59.829 160.192 -46.0598 160.192H4.6296C18.4144 160.192 29.5854 148.928 29.5854 135.029V83.9194C29.5854 70.0359 18.4144 58.7566 4.6296 58.7566ZM396.889 58.7566H346.2C332.431 58.7566 321.26 70.0202 321.26 83.9037V135.029C321.26 148.913 332.431 160.176 346.2 160.176H396.889C410.674 160.176 421.845 148.913 421.845 135.014V83.9194C421.845 70.0359 410.674 58.7566 396.889 58.7566ZM396.889 261.58H346.2C332.431 261.58 321.26 272.844 321.26 286.743V337.853C321.26 351.736 332.431 363 346.2 363H396.889C410.674 363 421.845 351.736 421.845 337.853V286.743C421.845 272.844 410.674 261.58 396.889 261.58ZM598.06 58.7566H547.37C533.586 58.7566 522.415 70.0202 522.415 83.9037V135.029C522.415 148.913 533.586 160.176 547.37 160.176H598.06C611.829 160.176 623 148.913 623 135.014V83.9194C623 70.0359 611.829 58.7566 598.06 58.7566ZM100.19 -42.6631H49.5002C35.7154 -42.6631 24.5444 -31.3994 24.5444 -17.5003V33.6096C24.5444 47.493 35.7154 58.7566 49.5002 58.7566H100.19C113.959 58.7566 125.13 47.493 125.13 33.6096V-17.5003C125.13 -31.3994 113.959 -42.6631 100.19 -42.6631ZM100.19 160.161H49.5002C35.7154 160.161 24.5444 171.424 24.5444 185.323V236.433C24.5444 250.332 35.7154 261.58 49.5002 261.58H100.19C113.959 261.58 125.13 250.332 125.13 236.433V185.323C125.13 171.424 113.959 160.161 100.19 160.161ZM296.319 -42.6631H245.614C231.83 -42.6631 220.659 -31.3994 220.659 -17.5003V33.6096C220.659 47.493 231.83 58.7566 245.614 58.7566H296.304C310.073 58.7566 321.244 47.493 321.244 33.6096V-17.5003C321.244 -31.3994 310.089 -42.6631 296.319 -42.6631ZM497.474 -42.6631H446.785C433 -42.6631 421.845 -31.3994 421.845 -17.5003V33.6096C421.845 47.493 433.016 58.7566 446.785 58.7566H497.474C511.259 58.7566 522.415 47.493 522.415 33.6096V-17.5003C522.415 -31.3994 511.259 -42.6631 497.474 -42.6631ZM296.319 160.161H245.614C231.83 160.161 220.659 171.424 220.659 185.323V236.433C220.659 250.332 231.83 261.58 245.614 261.58H296.304C310.073 261.58 321.244 250.332 321.244 236.433V185.323C321.244 171.424 310.073 160.176 296.304 160.176L296.319 160.161ZM497.474 160.161H446.785C433 160.161 421.845 171.424 421.845 185.323V236.433C421.845 250.332 433.016 261.58 446.785 261.58H497.474C511.259 261.58 522.415 250.332 522.415 236.433V185.323C522.415 171.424 511.259 160.161 497.474 160.161ZM200.775 -139H150.07C136.301 -139 125.13 -127.736 125.13 -113.853V-62.7431C125.13 -48.8439 136.301 -37.5803 150.07 -37.5803H200.775C214.544 -37.5803 225.715 -48.8439 225.715 -62.7431V-113.853C225.7 -127.736 214.56 -139 200.775 -139ZM396.889 -139H346.2C332.431 -139 321.26 -127.736 321.26 -113.853V-62.7431C321.26 -48.8439 332.431 -37.5803 346.2 -37.5803H396.889C410.674 -37.5803 421.845 -48.8439 421.845 -62.7431V-113.853C421.845 -127.736 410.674 -139 396.889 -139Z" fill="white" fill-opacity="0.05"/>
</svg>
