<svg width="682" height="493" viewBox="0 0 682 493" fill="none" xmlns="http://www.w3.org/2000/svg">
<path d="M267.076 194.211H217.247C203.716 194.211 192.738 205.273 192.738 218.907V269.116C192.738 282.751 203.716 293.813 217.247 293.813H267.076C280.607 293.813 291.585 282.751 291.585 269.101V218.923C291.585 205.288 280.607 194.227 267.06 194.227L267.076 194.211ZM74.3219 194.211H24.5089C10.9778 194.211 0 205.273 0 218.923V269.132C0 282.766 10.9778 293.828 24.5089 293.828H74.3219C87.8683 293.828 98.8461 282.766 98.8461 269.116V218.923C98.8461 205.288 87.8683 194.211 74.3219 194.211ZM459.799 194.211H409.986C396.455 194.211 385.477 205.273 385.477 218.907V269.116C385.477 282.751 396.455 293.813 409.986 293.813H459.799C473.345 293.813 484.323 282.751 484.323 269.101V218.923C484.323 205.288 473.345 194.211 459.799 194.211ZM459.799 393.399H409.986C396.455 393.399 385.477 404.46 385.477 418.11V468.304C385.477 481.938 396.455 493 409.986 493H459.799C473.345 493 484.323 481.938 484.323 468.304V418.11C484.323 404.46 473.345 393.399 459.799 393.399ZM657.491 194.211H607.678C594.132 194.211 583.154 205.273 583.154 218.907V269.116C583.154 282.751 594.132 293.813 607.678 293.813H657.491C671.022 293.813 682 282.751 682 269.101V218.923C682 205.288 671.022 194.211 657.491 194.211ZM168.23 94.6098H118.417C104.87 94.6098 93.8923 105.671 93.8923 119.321V169.515C93.8923 183.15 104.87 194.211 118.417 194.211H168.23C181.761 194.211 192.738 183.15 192.738 169.515V119.321C192.738 105.671 181.761 94.6098 168.23 94.6098ZM168.23 293.797H118.417C104.87 293.797 93.8923 304.859 93.8923 318.509V368.702C93.8923 382.352 104.87 393.399 118.417 393.399H168.23C181.761 393.399 192.738 382.352 192.738 368.702V318.509C192.738 304.859 181.761 293.797 168.23 293.797ZM360.968 94.6098H311.14C297.593 94.6098 286.616 105.671 286.616 119.321V169.515C286.616 183.15 297.593 194.211 311.14 194.211H360.953C374.484 194.211 385.462 183.15 385.462 169.515V119.321C385.462 105.671 374.499 94.6098 360.968 94.6098ZM558.645 94.6098H508.832C495.286 94.6098 484.323 105.671 484.323 119.321V169.515C484.323 183.15 495.301 194.211 508.832 194.211H558.645C572.191 194.211 583.154 183.15 583.154 169.515V119.321C583.154 105.671 572.191 94.6098 558.645 94.6098ZM360.968 293.797H311.14C297.593 293.797 286.616 304.859 286.616 318.509V368.702C286.616 382.352 297.593 393.399 311.14 393.399H360.953C374.484 393.399 385.462 382.352 385.462 368.702V318.509C385.462 304.859 374.484 293.813 360.953 293.813L360.968 293.797ZM558.645 293.797H508.832C495.286 293.797 484.323 304.859 484.323 318.509V368.702C484.323 382.352 495.301 393.399 508.832 393.399H558.645C572.191 393.399 583.154 382.352 583.154 368.702V318.509C583.154 304.859 572.191 293.797 558.645 293.797ZM267.076 0H217.247C203.716 0 192.738 11.0617 192.738 24.6962V74.8898C192.738 88.5397 203.716 99.6014 217.247 99.6014H267.076C280.607 99.6014 291.585 88.5397 291.585 74.8898V24.6962C291.569 11.0617 280.622 0 267.076 0ZM459.799 0H409.986C396.455 0 385.477 11.0617 385.477 24.6962V74.8898C385.477 88.5397 396.455 99.6014 409.986 99.6014H459.799C473.345 99.6014 484.323 88.5397 484.323 74.8898V24.6962C484.323 11.0617 473.345 0 459.799 0Z" fill="#0091C2" fill-opacity="0.05"/>
</svg>
